<?xml version="1.0" encoding="UTF-8"?>
<svg width="195px" height="50px" viewBox="0 0 195 50" version="1.1" xmlns="http://www.w3.org/2000/svg" xmlns:xlink="http://www.w3.org/1999/xlink">
    <!-- Generator: Sketch 58 (84663) - https://sketch.com -->
    <title>Download_on_the_Mac_App_Store_Badge_US-UK_RGB_blk_092917</title>
    <desc>Created with Sketch.</desc>
    <g id="Page-1" stroke="none" stroke-width="1" fill="none" fill-rule="evenodd">
        <g id="App-Page-light" transform="translate(-653.000000, -329.000000)" fill-rule="nonzero">
            <g id="Download_on_the_Mac_App_Store_Badge_US-UK_RGB_blk_092917" transform="translate(653.000000, 329.000000)">
                <g id="Group">
                    <g id="Path">
                        <path d="M182.980644,-0.0001625 L11.9031674,-0.0001625 C11.4453763,-0.0001625 10.9930782,-0.0001625 10.5364981,0.0025 C10.1542981,0.005 9.7751442,0.0122625 9.38927389,0.018375 C8.55098523,0.0282522545 7.71466795,0.102095325 6.88758981,0.2392625 C6.06167337,0.379415785 5.26162938,0.643644675 4.51451669,1.0230125 C3.76831784,1.40558981 3.08649455,1.90270957 2.49378166,2.4963375 C1.89795726,3.08829624 1.40129162,3.77252047 1.0228828,4.5227 C0.643429601,5.2713864 0.380315526,6.07367287 0.242628025,6.90185 C0.103631493,7.72898113 0.0288361949,8.56565068 0.0189133758,9.40435 C0.00732815287,9.7876 0.00610471338,10.172125 0,10.555425 L0,39.44825 C0.00610471338,39.836375 0.00732815287,40.212375 0.0189008917,40.600625 C0.0288267537,41.4392827 0.103622053,42.2759105 0.242615541,43.103 C0.379922846,43.9316613 0.643052477,44.7344083 1.02287032,45.483375 C1.4011111,46.2311295 1.89785084,46.9125837 2.49378166,47.50125 C3.08424718,48.0975174 3.76651118,48.5949754 4.51451669,48.974625 C5.26162371,49.3550082 6.06158145,49.6208098 6.88758981,49.763125 C7.71480855,49.8991934 8.55103982,49.9730665 9.38927389,49.984125 C9.7751442,49.992625 10.1542981,49.9975 10.5364981,49.9975 C10.9930657,50 11.4454013,50 11.9031674,50 L182.980644,50 C183.429322,50 183.88524,50 184.333918,49.9975 C184.714308,49.9975 185.104435,49.992625 185.484825,49.984125 C186.321474,49.9736546 187.156131,49.8997768 187.98164,49.763125 C188.810313,49.619808 189.613139,49.3540767 190.363851,48.974625 C191.111182,48.5947557 191.792817,48.0973113 192.382776,47.50125 C192.977165,46.9102773 193.474961,46.2293216 193.857895,45.483375 C194.234863,44.7338635 194.495487,43.9311806 194.630784,43.103 C194.77,42.275797 194.847449,41.4393553 194.862488,40.600625 C194.867357,40.212375 194.867357,39.836375 194.867357,39.44825 C194.877095,38.994125 194.877095,38.5425 194.877095,38.081 L194.877095,11.9201625 C194.877095,11.4624 194.877095,11.0083 194.867357,10.555425 C194.867357,10.172125 194.867357,9.7876 194.862488,9.4043 C194.847452,8.56552806 194.770003,7.72904459 194.630784,6.9018 C194.49511,6.074102 194.234501,5.2718791 193.857895,4.52265 C193.087283,3.0189951 191.865315,1.79503175 190.363851,1.0229 C189.613136,0.644459225 188.810225,0.380300512 187.98164,0.23915 C187.156274,0.101378479 186.32153,0.0275097061 185.484825,0.0182 C185.104435,0.0121 184.714308,0.004775 184.333918,0.0023375 C183.88524,-0.0001625 183.429322,-0.0001625 182.980644,-0.0001625 L182.980644,-0.0001625 Z" fill="#A6A6A6"></path>
                        <path d="M10.5425903,48.90625 C10.1622255,48.90625 9.7909865,48.901375 9.41366777,48.892875 C8.63189215,48.8826759 7.85194373,48.8145313 7.08021911,48.689 C6.36062484,48.5649102 5.66353141,48.3340806 5.01193223,48.004125 C4.36630786,47.6769033 3.77744654,47.2478411 3.26790675,46.733375 C2.75099149,46.2249691 2.32063592,45.635305 1.99389427,44.98775 C1.66355183,44.3359866 1.43493544,43.6373746 1.31600892,42.91625 C1.18757761,42.1413937 1.11809125,41.3578916 1.10814904,40.5725 C1.10023414,40.308875 1.08987236,39.431125 1.08987236,39.431125 L1.08987236,10.555425 C1.08987236,10.555425 1.10090828,9.6911625 1.10821146,9.43725 C1.11773127,8.65310254 1.18681356,7.87081633 1.31486038,7.0971625 C1.43400719,6.37406269 1.66280053,5.67343623 1.99332,5.0195375 C2.31886099,4.37242993 2.74682729,3.78232551 3.26062854,3.2721 C3.77385245,2.75702677 4.36459743,2.32575515 5.01132051,1.9940125 C5.66142213,1.665117 6.35719814,1.43591568 7.07533783,1.3140875 C7.84959693,1.18729517 8.63225302,1.11874511 9.41673885,1.1090125 L10.543202,1.09375 L184.327788,1.09375 L185.467709,1.109625 C186.245059,1.118874 187.020606,1.18681251 187.78775,1.3128625 C188.513159,1.43621884 189.216187,1.66701942 189.873714,1.997675 C191.169335,2.66623256 192.223556,3.72395369 192.888619,5.0225875 C193.213863,5.67197195 193.439127,6.36688345 193.556766,7.0837375 C193.686338,7.86373923 193.758855,8.65217292 193.77374,9.44275 C193.77736,9.79675 193.77736,10.177 193.77736,10.555425 C193.787222,11.024175 193.787222,11.4703375 193.787222,11.9201625 L193.787222,38.081 C193.787222,38.535125 193.787222,38.97825 193.77736,39.425 C193.77736,39.8315 193.77736,40.203875 193.772491,40.587125 C193.757929,41.3635946 193.68662,42.1379553 193.559138,42.904 C193.442649,43.6303264 193.215277,44.3343914 192.884998,44.9915 C192.555947,45.6320264 192.128063,46.2165827 191.617115,46.723625 C191.107117,47.2408558 190.517217,47.6724284 189.870094,48.00175 C189.214388,48.3342421 188.512395,48.5659253 187.78775,48.689 C187.016084,48.8152012 186.23606,48.8833502 185.454226,48.892875 C185.088568,48.901375 184.705681,48.90625 184.333905,48.90625 L182.980631,48.90875 L10.5425903,48.90625 Z" fill="#000000"></path>
                    </g>
                    <g id="_Group_" transform="translate(11.235669, 10.000000)" fill="#FFFFFF">
                        <g id="_Group_2">
                            <g id="_Group_3">
                                <g id="_Group_4">
                                    <path d="M19.6859903,15.37585 C19.7132768,13.2552614 20.823593,11.2964826 22.6279378,10.185775 C21.4844871,8.55064096 19.6379417,7.55109794 17.6453432,7.488675 C15.5489671,7.26835 13.5166219,8.7447125 12.448347,8.7447125 C11.3593985,8.7447125 9.7146214,7.51055 7.94346803,7.5470375 C5.61309202,7.62242302 3.49321584,8.91690685 2.35944051,10.956875 C-0.0549798726,15.1424 1.74596051,21.2937125 4.05877299,24.676975 C5.21592204,26.3336625 6.56829707,28.184225 8.33785248,28.1186 C10.0694688,28.0466875 10.7161939,27.013 12.8064028,27.013 C14.8772115,27.013 15.483975,28.1186 17.2894346,28.076875 C19.1475396,28.046675 20.3182339,26.412825 21.4347847,24.74045 C22.2661944,23.5599996 22.9059628,22.2553449 23.3303918,20.8748125 C21.1235274,19.9402266 19.6885661,17.7750429 19.6859903,15.37585 L19.6859903,15.37585 Z" id="_Path_"></path>
                                    <path d="M16.2758025,5.2636125 C17.2889186,4.04585238 17.7880424,2.48062807 17.6671778,0.9003375 C16.1193619,1.06311311 14.6896135,1.80381209 13.6628104,2.97485 C12.6488896,4.13023628 12.1352397,5.64179085 12.2349941,7.1765875 C13.8035645,7.19275846 15.2928889,6.48769152 16.2758025,5.2636125 L16.2758025,5.2636125 Z" id="_Path_2"></path>
                                </g>
                            </g>
                            <g id="Group" transform="translate(32.458599, 11.250000)">
                                <polygon id="Path" points="13.9184344 16.8701125 13.9184344 5.4455625 13.8428433 5.4455625 9.16985376 16.7517125 7.38622879 16.7517125 2.70104229 5.4455625 2.62664968 5.4455625 2.62664968 16.870125 0.434645605 16.870125 0.434645605 1.347625 3.21795796 1.347625 8.2347465 13.599825 8.32008764 13.599825 13.3271261 1.347625 16.1201885 1.347625 16.1201885 16.870125"></polygon>
                                <path d="M17.9720764,13.6535625 C17.9720764,11.6748125 19.4862576,10.4797375 22.1732553,10.3185625 L25.2674586,10.1464375 L25.2674586,9.2858375 C25.2674586,8.0272875 24.439652,7.3168375 23.0315605,7.3168375 C21.9524829,7.1731436 20.9352104,7.85584912 20.6578757,8.90985 L18.4877936,8.90985 C18.5524112,6.865175 20.4542854,5.4137625 23.0961781,5.4137625 C25.7929383,5.4137625 27.5765508,6.88715 27.5765508,9.1137625 L27.5765508,16.8701125 L25.3528247,16.8701125 L25.3528247,15.00855 L25.2991432,15.00855 C24.5737846,16.2941982 23.2065399,17.0820919 21.7319182,17.0642125 C20.7704122,17.1584058 19.8138752,16.8417725 19.0979102,16.1923021 C18.3819453,15.5428318 17.9731,14.6208913 17.9720764,13.6535625 Z M25.2674836,12.6318375 L25.2674836,11.76025 L22.4841462,11.932375 C21.0979768,12.01905 20.3140642,12.62085 20.3140642,13.588875 C20.3140642,14.578875 21.1308973,15.2246125 22.3768581,15.2246125 C23.1058807,15.2741336 23.8239774,15.026744 24.3682317,14.5385698 C24.912486,14.0503955 25.2367595,13.3628208 25.2674836,12.6318375 L25.2674836,12.6318375 Z" id="Shape"></path>
                                <path d="M37.318762,9.447025 C37.108443,8.1634109 35.9498152,7.25603093 34.6549223,7.3608375 C32.8713098,7.3608375 31.6899541,8.8562 31.6899541,11.21215 C31.6899541,13.6218125 32.8822833,15.0732375 34.6756459,15.0732375 C35.9546577,15.2014876 37.1125247,14.3111125 37.318762,13.0407375 L39.5534117,13.0407375 C39.2643161,15.4742343 37.0922046,17.2345252 34.6549223,17.0105 C31.4315338,17.0105 29.3260318,14.8046875 29.3260318,11.2121625 C29.3260318,7.6941 31.4314963,5.413825 34.6330127,5.413825 C37.0883593,5.20534612 39.2621045,6.99465138 39.5327631,9.447025 L37.318762,9.447025 Z" id="Path"></path>
                                <path d="M54.6294446,12.6745625 L48.7202318,12.6745625 L47.3011419,16.870125 L44.7982344,16.870125 L50.3953452,1.347625 L52.9957783,1.347625 L58.5928892,16.870125 L56.0472611,16.870125 L54.6294446,12.6745625 Z M49.3322512,10.738525 L54.0162767,10.738525 L51.7072094,3.9294375 L51.6425918,3.9294375 L49.3322512,10.738525 Z" id="Shape"></path>
                                <path d="M70.680746,11.2121625 C70.680746,14.7290125 68.8008189,16.988525 65.9638624,16.988525 C64.4974644,17.0653308 63.1161976,16.2962884 62.407611,15.008525 L62.3539294,15.008525 L62.3539294,20.614 L60.0339261,20.614 L60.0339261,5.552975 L62.2795992,5.552975 L62.2795992,7.4353 L62.3222698,7.4353 C63.0623342,6.15560786 64.4450918,5.38689577 65.9211918,5.4345625 C68.7898454,5.434575 70.680746,7.705075 70.680746,11.2121625 Z M68.2960876,11.2121625 C68.2960876,8.9209125 67.1135085,7.41455 65.3091725,7.41455 C63.5365335,7.41455 62.3442043,8.9526375 62.3442043,11.2121625 C62.3442043,13.4924375 63.5365335,15.0195375 65.3091725,15.0195375 C67.113521,15.0195375 68.2960876,13.524175 68.2960876,11.2121625 Z" id="Shape"></path>
                                <path d="M83.1209284,11.2121625 C83.1209284,14.7290125 81.2410013,16.988525 78.4040448,16.988525 C76.9376468,17.0653308 75.5563801,16.2962884 74.8477934,15.008525 L74.7941118,15.008525 L74.7941118,20.614 L72.4740711,20.614 L72.4740711,5.552975 L74.7197442,5.552975 L74.7197442,7.4353 L74.7624148,7.4353 C75.5024812,6.1556099 76.8852374,5.38689855 78.3613368,5.4345625 C81.2300278,5.434575 83.1209284,7.705075 83.1209284,11.2121625 Z M80.7362825,11.2121625 C80.7362825,8.9209125 79.553691,7.41455 77.7493549,7.41455 C75.9767159,7.41455 74.7843868,8.9526375 74.7843868,11.2121625 C74.7843868,13.4924375 75.9767159,15.0195375 77.7493549,15.0195375 C79.5537034,15.0195375 80.7362825,13.524175 80.7362825,11.2121625 L80.7362825,11.2121625 Z" id="Shape"></path>
                                <path d="M91.3428662,12.5451625 C91.514772,14.084475 93.008242,15.0951625 95.0490764,15.0951625 C97.0045946,15.0951625 98.4114876,14.084425 98.4114876,12.696475 C98.4114876,11.4916375 97.5629575,10.770225 95.5538076,10.275825 L93.5446578,9.7912 C90.6979513,9.102725 89.376387,7.7697125 89.376387,5.606625 C89.376387,2.9284 91.7074013,1.0888 95.0173794,1.0888 C98.293201,1.0888 100.538899,2.9284 100.61449,5.606625 L98.2724775,5.606625 C98.1322813,4.05755 96.8533875,3.1225 94.9844339,3.1225 C93.1154803,3.1225 91.8365865,4.06855 91.8365865,5.4455 C91.8365865,6.5429125 92.6534321,7.1886625 94.6516084,7.683 L96.3596298,8.102925 C99.5403852,8.8561 100.86195,10.135425 100.86195,12.4059 C100.86195,15.30995 98.5516589,17.1288 94.8771457,17.1288 C91.4391434,17.1288 89.1178917,15.352675 88.967933,12.54505 L91.3428662,12.5451625 Z" id="Path"></path>
                                <path d="M105.869013,2.87475 L105.869013,5.552975 L108.018371,5.552975 L108.018371,7.392575 L105.869013,7.392575 L105.869013,13.6315875 C105.869013,14.600825 106.299377,15.0524875 107.244209,15.0524875 C107.499373,15.0480324 107.754124,15.0300908 108.007398,14.9987375 L108.007398,16.82735 C107.5826,16.9068244 107.150829,16.9428181 106.718754,16.934775 C104.430423,16.934775 103.537999,16.074175 103.537999,13.87935 L103.537999,7.392575 L101.894582,7.392575 L101.894582,5.552975 L103.537999,5.552975 L103.537999,2.87475 L105.869013,2.87475 Z" id="Path"></path>
                                <path d="M109.261885,11.2121625 C109.261885,7.651375 111.356376,5.413825 114.622485,5.413825 C117.899555,5.413825 119.984296,7.651325 119.984296,11.2121625 C119.984296,14.782725 117.910529,17.0105 114.622485,17.0105 C111.335678,17.0105 109.261885,14.7827125 109.261885,11.2121625 Z M117.620386,11.2121625 C117.620386,8.7695375 116.5024,7.3278875 114.622473,7.3278875 C112.742546,7.3278875 111.624584,8.780525 111.624584,11.2121625 C111.624584,13.66455 112.742546,15.095225 114.622473,15.095225 C116.5024,15.095225 117.620386,13.66455 117.620386,11.2121625 L117.620386,11.2121625 Z" id="Shape"></path>
                                <path d="M121.89838,5.552975 L124.111132,5.552975 L124.111132,7.479225 L124.164814,7.479225 C124.47339,6.23921051 125.608139,5.38578945 126.883509,5.43455 C127.150873,5.43361529 127.417499,5.46268843 127.678395,5.521225 L127.678395,7.694075 C127.340864,7.59080546 126.988761,7.54339046 126.635975,7.5537 C125.953907,7.52599806 125.293818,7.79817381 124.829027,8.29876239 C124.364236,8.79935097 124.141178,9.47834068 124.218421,10.15745 L124.218421,16.8701 L121.89838,16.8701 L121.89838,5.552975 Z" id="Path"></path>
                                <path d="M138.37394,13.5461375 C138.061838,15.600575 136.063649,17.0104875 133.507098,17.0104875 C130.219054,17.0104875 128.178207,14.804675 128.178207,11.2658625 C128.178207,7.7160625 130.230028,5.4138125 133.409572,5.4138125 C136.536684,5.4138125 138.503175,7.5646875 138.503175,10.9960875 L138.503175,11.7919875 L130.520195,11.7919875 L130.520195,11.9323625 C130.445662,12.774902 130.736222,13.6088993 131.317965,14.2222124 C131.899708,14.8355255 132.716566,15.1690416 133.560754,15.137925 C134.686621,15.2435495 135.748093,14.5962221 136.17095,13.546125 L138.37394,13.5461375 Z M130.531156,10.1684625 L136.181911,10.1684625 C136.224014,9.41137187 135.948779,8.67102885 135.422517,8.12578943 C134.896255,7.58055001 134.166683,7.27985051 133.409572,7.2961375 C132.646475,7.29158113 131.913175,7.59242311 131.37266,8.13179602 C130.832146,8.67116892 130.529204,9.40438083 130.531156,10.1684625 L130.531156,10.1684625 Z" id="Shape"></path>
                            </g>
                        </g>
                    </g>
                </g>
                <g id="_Group_5" transform="translate(43.694268, 10.000000)" fill="#FFFFFF">
                    <g id="Group">
                        <path d="M3.5282372,0.91375 C4.51316411,0.842980227 5.47787824,1.21818429 6.15684849,1.93608977 C6.83581874,2.65399526 7.15747791,3.63893099 7.03329146,4.6198 C7.03329146,7.0026125 5.74709452,8.3723 3.5282372,8.3723 L0.837581656,8.3723 L0.837581656,0.91375 L3.5282372,0.91375 Z M1.99454344,7.3175 L3.39900204,7.3175 C4.10288166,7.35962751 4.78825069,7.08194876 5.26480783,6.56156474 C5.74136496,6.04118072 5.95837454,5.33349302 5.85558115,4.635 C5.95089584,3.93940567 5.73076108,3.23755777 5.25538555,2.72141748 C4.78001001,2.20527718 4.09914109,1.92885787 3.39900204,1.9677625 L1.99454344,1.9677625 L1.99454344,7.3175 Z" id="Shape"></path>
                        <path d="M8.34021197,5.555425 C8.24381883,4.54653131 8.72697324,3.57013992 9.58704154,3.03574671 C10.4471098,2.5013535 11.5353888,2.5013535 12.3954571,3.03574671 C13.2555254,3.57013992 13.7386798,4.54653131 13.6422866,5.555425 C13.7405138,6.56540283 13.2578004,7.54368798 12.3969695,8.07923163 C11.5361386,8.61477527 10.44636,8.61477527 9.58552913,8.07923163 C8.72469824,7.54368798 8.24198484,6.56540283 8.34021197,5.555425 Z M12.5011671,5.555425 C12.5011671,4.3353375 11.9537529,3.6218375 10.9930782,3.6218375 C10.0287332,3.6218375 9.48625019,4.3353375 9.48625019,5.5554375 C9.48625019,6.7853 10.0287707,7.4933 10.9930782,7.4933 C11.9537654,7.4933 12.5011671,6.7804 12.5011671,5.555425 L12.5011671,5.555425 Z" id="Shape"></path>
                        <polygon id="Path" points="20.6901845 8.3721875 19.5393149 8.3721875 18.3774718 4.226675 18.2896963 4.226675 17.132722 8.3721875 15.9928135 8.3721875 14.4432775 2.743525 15.5685546 2.743525 16.5755702 7.038525 16.6584769 7.038525 17.8142278 2.743525 18.8785452 2.743525 20.0342961 7.038525 20.1220716 7.038525 21.1242059 2.743525 22.2336283 2.743525"></polygon>
                        <path d="M23.536891,2.743525 L24.6048662,2.743525 L24.6048662,3.6376875 L24.687773,3.6376875 C24.9760738,2.97934742 25.6497496,2.57663434 26.3653208,2.634875 C26.919385,2.59316471 27.4623288,2.80598738 27.8408522,3.21325259 C28.2193755,3.6205178 28.3924015,4.1780297 28.3110764,4.728375 L28.3110764,8.372125 L27.201654,8.372125 L27.201654,5.007325 C27.201654,4.1027875 26.8090922,3.65295 25.9886013,3.65295 C25.6127879,3.6354239 25.248071,3.78310321 24.9900682,4.05727098 C24.7320653,4.33143875 24.6065079,4.70475126 24.6463134,5.0793375 L24.6463134,8.3721875 L23.536891,8.3721875 L23.536891,2.743525 Z" id="Path"></path>
                        <polygon id="Path" points="30.0788466 0.54625 31.188269 0.54625 31.188269 8.372175 30.0788466 8.372175"></polygon>
                        <path d="M32.7304894,5.555425 C32.6340963,4.54653131 33.1172507,3.57013992 33.977319,3.03574671 C34.8373873,2.5013535 35.9256662,2.5013535 36.7857345,3.03574671 C37.6458028,3.57013992 38.1289572,4.54653131 38.0325641,5.555425 C38.1307912,6.56540283 37.6480778,7.54368798 36.7872469,8.07923163 C35.926416,8.61477527 34.8366375,8.61477527 33.9758066,8.07923163 C33.1149757,7.54368798 32.6322623,6.56540283 32.7304894,5.555425 Z M36.8914446,5.555425 C36.8914446,4.3353375 36.3440303,3.6218375 35.3833557,3.6218375 C34.4190107,3.6218375 33.8765276,4.3353375 33.8765276,5.5554375 C33.8765276,6.7853 34.4190482,7.4933 35.3833557,7.4933 C36.3440428,7.4933 36.8914446,6.7804 36.8914446,5.555425 L36.8914446,5.555425 Z" id="Shape"></path>
                        <path d="M39.2005118,6.7804 C39.2005118,5.7672125 39.9539508,5.1831125 41.291345,5.1001 L42.8140652,5.0122125 L42.8140652,4.526375 C42.8140652,3.9318875 42.4215034,3.5962 41.6631957,3.5962 C41.0438731,3.5962 40.614733,3.8238625 40.4915901,4.2218125 L39.4175225,4.2218125 C39.5309029,3.2550125 40.4391694,2.6349 41.7143929,2.6349 C43.1237327,2.6349 43.9186189,3.3374 43.9186189,4.526375 L43.9186189,8.3722 L42.8506436,8.3722 L42.8506436,7.5811875 L42.762868,7.5811875 C42.4001414,8.15884542 41.7550955,8.49645404 41.0743468,8.4649375 C40.5971256,8.51463977 40.1211765,8.35988833 39.7641627,8.03894056 C39.4071489,7.71799279 39.2023921,7.26080414 39.2005118,6.7804 L39.2005118,6.7804 Z M42.8140652,6.2994375 L42.8140652,5.8288625 L41.4413037,5.91675 C40.6671411,5.968625 40.3160265,6.2323 40.3160265,6.7285125 C40.3160265,7.2351 40.7549167,7.5299 41.3584469,7.5299 C41.7157238,7.56611233 42.0723817,7.45559382 42.3467742,7.22364449 C42.6211668,6.99169516 42.7897982,6.65817632 42.8140652,6.2994375 L42.8140652,6.2994375 Z" id="Shape"></path>
                        <path d="M45.3767215,5.555425 C45.3767215,3.7768625 46.2898693,2.65015 47.7101702,2.65015 C48.4273514,2.61706267 49.0990581,3.00184108 49.4340464,3.63765 L49.5169531,3.63765 L49.5169531,0.54625 L50.6263755,0.54625 L50.6263755,8.372175 L49.5632815,8.372175 L49.5632815,7.4828875 L49.475506,7.4828875 C49.1151958,8.11342123 48.4352136,8.49169559 47.7101827,8.4649375 C46.2801068,8.465 45.3767215,7.3382625 45.3767215,5.555425 Z M46.5227597,5.555425 C46.5227597,6.749275 47.0847929,7.4676625 48.0247564,7.4676625 C48.9598138,7.4676625 49.5377141,6.7389125 49.5377141,5.5603125 C49.5377141,4.3872125 48.9537465,3.648075 48.0247564,3.648075 C47.0908352,3.648075 46.5227098,4.3713375 46.5227098,5.555425 L46.5227597,5.555425 Z" id="Shape"></path>
                        <path d="M55.2164583,5.555425 C55.1201392,4.54646531 55.6033698,3.5700492 56.463502,3.03564775 C57.3236341,2.5012463 58.411969,2.5012463 59.2721011,3.03564775 C60.1322332,3.5700492 60.6154638,4.54646531 60.5191447,5.555425 C60.6172471,6.56543899 60.1344452,7.54369649 59.2735716,8.07921655 C58.412698,8.61473661 57.322905,8.61473661 56.4620314,8.07921655 C55.6011578,7.54369649 55.118356,6.56543899 55.2164583,5.555425 L55.2164583,5.555425 Z M59.3774135,5.555425 C59.3774135,4.3353375 58.8299992,3.6218375 57.8693246,3.6218375 C56.9049796,3.6218375 56.3624966,4.3353375 56.3624966,5.5554375 C56.3624966,6.7853 56.9050171,7.4933 57.8693246,7.4933 C58.8299618,7.4933 59.3774135,6.7804 59.3774135,5.555425 L59.3774135,5.555425 Z" id="Shape"></path>
                        <path d="M62.007721,2.743525 L63.0756963,2.743525 L63.0756963,3.6376875 L63.1586031,3.6376875 C63.4469039,2.97934742 64.1205796,2.57663434 64.8361508,2.634875 C65.3902151,2.59316471 65.9331589,2.80598738 66.3116822,3.21325259 C66.6902056,3.6205178 66.8632316,4.1780297 66.7819065,4.728375 L66.7819065,8.372125 L65.6724841,8.372125 L65.6724841,5.007325 C65.6724841,4.1027875 65.2799223,3.65295 64.4594313,3.65295 C64.083618,3.6354239 63.7189011,3.78310321 63.4608982,4.05727098 C63.2028954,4.33143875 63.077338,4.70475126 63.1171434,5.0793375 L63.1171434,8.3721875 L62.007721,8.3721875 L62.007721,2.743525 Z" id="Path"></path>
                        <path d="M73.050773,1.3421625 L73.050773,2.7691625 L74.268707,2.7691625 L74.268707,3.7048375 L73.050773,3.7048375 L73.050773,6.599125 C73.050773,7.188725 73.2933885,7.4469 73.8456591,7.4469 C73.9870482,7.44644692 74.1282954,7.43788708 74.268707,7.4212625 L74.268707,8.34655 C74.069473,8.3822384 73.8676131,8.40122505 73.6652268,8.4033125 C72.4314504,8.4033125 71.9401271,7.9687375 71.9401271,6.8835375 L71.9401271,3.7047875 L71.0477154,3.7047875 L71.0477154,2.7691125 L71.9401271,2.7691125 L71.9401271,1.3421625 L73.050773,1.3421625 Z" id="Path"></path>
                        <path d="M75.7840991,0.54625 L76.8837715,0.54625 L76.8837715,3.6480625 L76.971547,3.6480625 C77.2736963,2.9839607 77.9591625,2.58073443 78.6856107,2.6397625 C79.2365288,2.6097466 79.7721227,2.82725464 80.1465089,3.23304232 C80.520895,3.63882999 80.6950788,4.19063205 80.6216163,4.73815 L80.6216163,8.3721875 L79.5110828,8.3721875 L79.5110828,5.0121875 C79.5110828,4.1131375 79.0928662,3.6578125 78.3090036,3.6578125 C77.9230321,3.62611709 77.5427673,3.7666137 77.2698694,4.04174188 C76.9969715,4.31687006 76.8592676,4.69857539 76.8935715,5.0848125 L76.8935715,8.3721875 L75.784149,8.3721875 L75.7840991,0.54625 Z" id="Path"></path>
                        <path d="M87.0904777,6.8524125 C86.7793833,7.91413685 85.7532445,8.6001288 84.6546222,8.480825 C83.9050332,8.50063775 83.1846364,8.18953837 82.6845703,7.63006895 C82.1845042,7.07059953 81.9553231,6.31931992 82.0578344,5.5755625 C81.9580459,4.82973809 82.1863682,4.07725467 82.6836497,3.51305869 C83.1809312,2.94886272 83.8982395,2.62847094 84.6497409,2.6348875 C86.2139083,2.6348875 87.1575297,3.7048875 87.1575297,5.4723875 L87.1575297,5.86 L83.1879804,5.86 L83.1879804,5.92225 C83.1528527,6.33992518 83.2953194,6.75305969 83.5803434,7.06005087 C83.8653674,7.36704206 84.2665021,7.5394049 84.6850958,7.53475 C85.2278683,7.59999335 85.7562202,7.3304163 86.0225024,6.852375 L87.0904777,6.8524125 Z M83.1879554,5.03845 L86.0273462,5.03845 C86.0556263,4.65645055 85.9214793,4.28025634 85.6579636,4.00257387 C85.3944478,3.72489139 85.0260702,3.57154528 84.6436112,3.580325 C84.2559706,3.57544864 83.8827916,3.72752654 83.6087266,4.0020611 C83.3346617,4.27659566 83.1829407,4.65031717 83.1879804,5.03845 L83.1879554,5.03845 Z" id="Shape"></path>
                    </g>
                </g>
            </g>
        </g>
    </g>
</svg>