<?xml version="1.0" encoding="UTF-8"?>
<svg width="196px" height="50px" viewBox="0 0 196 50" version="1.1" xmlns="http://www.w3.org/2000/svg" xmlns:xlink="http://www.w3.org/1999/xlink">
    <!-- Generator: Sketch 58 (84663) - https://sketch.com -->
    <title>Download_on_the_Mac_App_Store_Badge_US-UK_RGB_wht_092917</title>
    <desc>Created with Sketch.</desc>
    <g id="Page-1" stroke="none" stroke-width="1" fill="none" fill-rule="evenodd">
        <g id="App-Page-dark" transform="translate(-653.000000, -329.000000)" fill-rule="nonzero">
            <g id="Download_on_the_Mac_App_Store_Badge_US-UK_RGB_wht_092917" transform="translate(653.000000, 329.000000)">
                <g id="Group">
                    <path d="M183.214037,-0.0001625 L11.91835,-0.0001625 C11.459975,-0.0001625 11.0071,-0.0001625 10.5499375,0.0025 C10.16725,0.005 9.7876125,0.0122625 9.40125,0.018375 C8.5618921,0.0282522545 7.72450809,0.102095325 6.896375,0.2392625 C6.0694051,0.379415785 5.26834065,0.643644675 4.520275,1.0230125 C3.77312437,1.40558981 3.09043141,1.90270957 2.4969625,2.4963375 C1.90037812,3.08829624 1.40307898,3.77252047 1.0241875,4.5227 C0.644250302,5.2713864 0.380800623,6.07367287 0.2429375,6.90185 C0.103763676,7.72898113 0.0288729758,8.56565068 0.0189375,9.40435 C0.0073375,9.7876 0.0061125,10.172125 0,10.555425 L0,39.44825 C0.0061125,39.836375 0.0073375,40.212375 0.018925,40.600625 C0.0288635225,41.4392827 0.103754224,42.2759105 0.242925,43.103 C0.380407441,43.9316613 0.643872697,44.7344083 1.024175,45.483375 C1.40289823,46.2311295 1.90027157,46.9125837 2.4969625,47.50125 C3.08818117,48.0975174 3.77131541,48.5949754 4.520275,48.974625 C5.26833496,49.3550082 6.06931306,49.6208098 6.896375,49.763125 C7.72464887,49.8991934 8.56194676,49.9730665 9.40125,49.984125 C9.7876125,49.992625 10.16725,49.9975 10.5499375,49.9975 C11.0070875,50 11.46,50 11.91835,50 L183.214037,50 C183.663287,50 184.119788,50 184.569037,49.9975 C184.949912,49.9975 185.340537,49.992625 185.721412,49.984125 C186.559129,49.9736546 187.394851,49.8997768 188.221412,49.763125 C189.051143,49.619808 189.854992,49.3540767 190.606662,48.974625 C191.354947,48.5947557 192.03745,48.0973113 192.628162,47.50125 C193.223309,46.9102773 193.721741,46.2293216 194.105162,45.483375 C194.482611,44.7338635 194.743568,43.9311806 194.879037,43.103 C195.018431,42.275797 195.095979,41.4393553 195.111037,40.600625 C195.115912,40.212375 195.115912,39.836375 195.115912,39.44825 C195.125662,38.994125 195.125662,38.5425 195.125662,38.081 L195.125662,11.9201625 C195.125662,11.4624 195.125662,11.0083 195.115912,10.555425 C195.115912,10.172125 195.115912,9.7876 195.111037,9.4043 C195.095982,8.56552806 195.018434,7.72904459 194.879037,6.9018 C194.743191,6.074102 194.482249,5.2718791 194.105162,4.52265 C193.333568,3.0189951 192.110042,1.79503175 190.606662,1.0229 C189.85499,0.644459225 189.051054,0.380300512 188.221412,0.23915 C187.394994,0.101378479 186.559185,0.0275097061 185.721412,0.0182 C185.340537,0.0121 184.949912,0.004775 184.569037,0.0023375 C184.119787,-0.0001625 183.663287,-0.0001625 183.214037,-0.0001625 L183.214037,-0.0001625 Z" id="Path" fill="#000000"></path>
                    <path d="M10.5560375,48.90625 C10.1751875,48.90625 9.803475,48.901375 9.425675,48.892875 C8.64290222,48.8826759 7.86195897,48.8145313 7.08925,48.689 C6.36873788,48.5649102 5.67075531,48.3340806 5.018325,48.004125 C4.37187713,47.6769033 3.78226471,47.2478411 3.272075,46.733375 C2.75450041,46.2249691 2.32359592,45.635305 1.9964375,44.98775 C1.66567371,44.3359866 1.43676572,43.6373746 1.3176875,42.91625 C1.18909237,42.1413937 1.11951739,41.3578916 1.1095625,40.5725 C1.1016375,40.308875 1.0912625,39.431125 1.0912625,39.431125 L1.0912625,10.555425 C1.0912625,10.555425 1.1023125,9.6911625 1.109625,9.43725 C1.11915695,8.65310254 1.18832735,7.87081633 1.3165375,7.0971625 C1.43583629,6.37406269 1.66492145,5.67343623 1.9958625,5.0195375 C2.32181872,4.37242993 2.7503309,3.78232551 3.2647875,3.2721 C3.77866604,2.75702677 4.37016452,2.32575515 5.0177125,1.9940125 C5.66864333,1.665117 6.36530681,1.43591568 7.0843625,1.3140875 C7.85960917,1.18729517 8.64326355,1.11874511 9.42875,1.1090125 L10.55665,1.09375 L184.5629,1.09375 L185.704275,1.109625 C186.482617,1.118874 187.259152,1.18681251 188.027275,1.3128625 C188.75361,1.43621884 189.457534,1.66701942 190.1159,1.997675 C191.413173,2.66623256 192.468739,3.72395369 193.13465,5.0225875 C193.460309,5.67197195 193.685861,6.36688345 193.80365,7.0837375 C193.933386,7.86373923 194.005996,8.65217292 194.0209,9.44275 C194.024525,9.79675 194.024525,10.177 194.024525,10.555425 C194.0344,11.024175 194.0344,11.4703375 194.0344,11.9201625 L194.0344,38.081 C194.0344,38.535125 194.0344,38.97825 194.024525,39.425 C194.024525,39.8315 194.024525,40.203875 194.01965,40.587125 C194.005069,41.3635946 193.93367,42.1379553 193.806025,42.904 C193.689387,43.6303264 193.461725,44.3343914 193.131025,44.9915 C192.801554,45.6320264 192.373124,46.2165827 191.861525,46.723625 C191.350876,47.2408558 190.760223,47.6724284 190.112275,48.00175 C189.455733,48.3342421 188.752845,48.5659253 188.027275,48.689 C187.254625,48.8152012 186.473606,48.8833502 185.690775,48.892875 C185.32465,48.901375 184.941275,48.90625 184.569025,48.90625 L183.214025,48.90875 L10.5560375,48.90625 Z" id="Path" fill="#FFFFFF"></path>
                </g>
                <g id="Group" transform="translate(43.750000, 21.250000)" fill="#000000">
                    <polygon id="Path" points="13.9361875 16.868425 13.9361875 5.44325 13.8605 5.44325 9.1815375 16.75 7.39565 16.75 2.7044875 5.44325 2.63 5.44325 2.63 16.868425 0.4352 16.868425 0.4352 1.34535 3.2220625 1.34535 8.24525 13.5981625 8.3307 13.5981625 13.344125 1.34535 16.14075 1.34535 16.14075 16.868425"></polygon>
                    <path d="M17.995,13.651875 C17.995,11.673125 19.5111125,10.47805 22.2015375,10.316875 L25.2996875,10.14415 L25.2996875,9.28355 C25.2996875,8.025 24.470825,7.31455 23.0609375,7.31455 C21.9804835,7.1708561 20.9619135,7.85356162 20.684225,8.9075625 L18.511375,8.9075625 C18.576075,6.8628875 20.480375,5.411475 23.1256375,5.411475 C25.8258375,5.411475 27.611725,6.8848625 27.611725,9.111475 L27.611725,16.8684375 L25.3851625,16.8684375 L25.3851625,15.00685 L25.3314125,15.00685 C24.6051298,16.2924855 23.2361535,17.0803727 21.7596625,17.0625 C20.7969304,17.1567004 19.8391705,16.8400737 19.1222875,16.1906081 C18.4054045,15.5411424 17.9960312,14.6192042 17.995,13.651875 L17.995,13.651875 Z M25.2997125,12.63015 L25.2997125,11.7585625 L22.512825,11.9306875 C21.1248875,12.0173625 20.339975,12.6191625 20.339975,13.5871875 C20.339975,14.5771875 21.15785,15.222925 22.4054,15.222925 C23.1353546,15.2724461 23.854369,15.0250548 24.3993179,14.5368779 C24.9442668,14.0487009 25.2689525,13.361123 25.2997125,12.6301375 L25.2997125,12.63015 Z" id="Shape"></path>
                    <path d="M37.3663625,9.4447125 C37.1557752,8.1610984 35.9956695,7.25371843 34.699125,7.358525 C32.9132375,7.358525 31.730375,8.8538875 31.730375,11.21045 C31.730375,13.6201125 32.924225,15.0715375 34.719875,15.0715375 C36.0005182,15.1997876 37.1598621,14.3094125 37.3663625,13.0390375 L39.6038625,13.0390375 C39.3143733,15.4725141 37.1394988,17.2327768 34.699125,17.00875 C31.471625,17.00875 29.3634375,14.8029375 29.3634375,11.2104125 C29.3634375,7.6917375 31.4715875,5.4114625 34.6771875,5.4114625 C37.1356659,5.20298362 39.3121837,6.99228888 39.5831875,9.4446625 L37.3663625,9.4447125 Z" id="Path"></path>
                    <path d="M54.699125,12.6728625 L48.782375,12.6728625 L47.361475,16.868425 L44.855375,16.868425 L50.459625,1.34535 L53.063375,1.34535 L58.667625,16.868425 L56.11875,16.868425 L54.699125,12.6728625 Z M49.395175,10.736825 L54.085175,10.736825 L51.7731625,3.9271375 L51.7084625,3.9271375 L49.395175,10.736825 Z" id="Shape"></path>
                    <path d="M70.7709,11.2104625 C70.7709,14.7273125 68.888575,16.986825 66.048,16.986825 C64.5797316,17.0636308 63.196703,16.2945884 62.4872125,15.006825 L62.4334625,15.006825 L62.4334625,20.6122875 L60.1105,20.6122875 L60.1105,5.550675 L62.3590375,5.550675 L62.3590375,7.433 L62.4017625,7.433 C63.1427709,6.15330786 64.5272922,5.38459577 66.005275,5.4322625 C68.8775875,5.4322625 70.7709,7.702775 70.7709,11.2104625 Z M68.3832,11.2104625 C68.3832,8.9185875 67.1991125,7.41225 65.392475,7.41225 C63.617575,7.41225 62.423725,8.9503375 62.423725,11.2104625 C62.423725,13.4907375 63.617575,15.0178375 65.392475,15.0178375 C67.199125,15.0178375 68.3832,13.5225 68.3832,11.2104625 Z" id="Shape"></path>
                    <path d="M83.22695,11.2104625 C83.22695,14.7273125 81.344625,16.986825 78.50405,16.986825 C77.0357816,17.0636308 75.652753,16.2945884 74.9432625,15.006825 L74.8895125,15.006825 L74.8895125,20.6122875 L72.5665125,20.6122875 L72.5665125,5.550675 L74.81505,5.550675 L74.81505,7.433 L74.857775,7.433 C75.5987854,6.1533099 76.9833053,5.38459855 78.4612875,5.4322625 C81.3336375,5.4322625 83.22695,7.702775 83.22695,11.2104625 Z M80.8392625,11.2104625 C80.8392625,8.9185875 79.6551625,7.41225 77.848525,7.41225 C76.073625,7.41225 74.879775,8.9503375 74.879775,11.2104625 C74.879775,13.4907375 76.073625,15.0178375 77.848525,15.0178375 C79.655175,15.0178375 80.8392625,13.5225 80.8392625,11.2104625 L80.8392625,11.2104625 Z" id="Shape"></path>
                    <path d="M91.459375,12.543475 C91.6315,14.0827875 93.126875,15.093475 95.1703125,15.093475 C97.128325,15.093475 98.5370125,14.0827375 98.5370125,12.6947875 C98.5370125,11.48995 97.6874,10.7685375 95.6756875,10.2741375 L93.663975,9.7889125 C90.8136375,9.1004375 89.4903875,7.767425 89.4903875,5.6043375 C89.4903875,2.9261125 91.824375,1.0865125 95.138575,1.0865125 C98.418575,1.0865125 100.667137,2.9261125 100.742825,5.6043375 L98.397825,5.6043375 C98.25745,4.0552625 96.976925,3.1202125 95.1055875,3.1202125 C93.23425,3.1202125 91.953725,4.0662625 91.953725,5.4432125 C91.953725,6.540625 92.7716125,7.186375 94.7723375,7.6807125 L96.4825375,8.1006375 C99.66735,8.8538125 100.9906,10.1331375 100.9906,12.404225 C100.9906,15.308275 98.6773625,17.127125 94.9981625,17.127125 C91.555775,17.127125 89.2315625,15.351 89.0814125,12.543375 L91.459375,12.543475 Z" id="Path"></path>
                    <path d="M106.00405,2.8725 L106.00405,5.550725 L108.15615,5.550725 L108.15615,7.390325 L106.00405,7.390325 L106.00405,13.62995 C106.00405,14.5991875 106.434963,15.05085 107.381,15.05085 C107.636489,15.0463949 107.891565,15.0284533 108.145162,14.9971 L108.145162,16.8257125 C107.719823,16.9051869 107.287501,16.9411806 106.854875,16.9331375 C104.563625,16.9331375 103.670063,16.0725375 103.670063,13.8777125 L103.670063,7.390275 L102.02455,7.390275 L102.02455,5.550675 L103.670063,5.550675 L103.670063,2.8725 L106.00405,2.8725 Z" id="Path"></path>
                    <path d="M109.40125,11.2104625 C109.40125,7.6490625 111.498413,5.4115125 114.768687,5.4115125 C118.049938,5.4115125 120.137338,7.6490125 120.137338,11.2104625 C120.137338,14.781025 118.060925,17.0088 114.768687,17.0088 C111.477688,17.0088 109.40125,14.781025 109.40125,11.2104625 Z M117.770412,11.2104625 C117.770412,8.767225 116.651,7.325575 114.768675,7.325575 C112.88635,7.325575 111.766962,8.7782125 111.766962,11.2104625 C111.766962,13.66285 112.88635,15.093525 114.768675,15.093525 C116.651,15.093525 117.770412,13.66285 117.770412,11.2104625 L117.770412,11.2104625 Z" id="Shape"></path>
                    <path d="M122.052625,5.550675 L124.268213,5.550675 L124.268213,7.476925 L124.321963,7.476925 C124.630933,6.23691051 125.767128,5.38348945 127.044125,5.43225 C127.31183,5.43131529 127.578796,5.46038843 127.840025,5.518925 L127.840025,7.691775 C127.502064,7.58850415 127.149512,7.54108911 126.796275,7.5514 C126.113335,7.5236943 125.452401,7.79586841 124.987014,8.29645747 C124.521628,8.79704652 124.298283,9.47603843 124.375625,10.15515 L124.375625,16.8684125 L122.052625,16.8684125 L122.052625,5.550675 Z" id="Path"></path>
                    <path d="M138.550438,13.54445 C138.237938,15.5988875 136.2372,17.0088 133.677388,17.0088 C130.38515,17.0088 128.3417,14.8029875 128.3417,11.264175 C128.3417,7.7137625 130.396138,5.4115125 133.579737,5.4115125 C136.710838,5.4115125 138.679838,7.5623875 138.679838,10.9944 L138.679838,11.7903 L130.686675,11.7903 L130.686675,11.930675 C130.612047,12.7732145 130.902977,13.6072118 131.485462,14.2205249 C132.067948,14.833838 132.885847,15.1673541 133.731113,15.1362375 C134.858415,15.241862 135.921241,14.5945346 136.344638,13.5444375 L138.550438,13.54445 Z M130.69765,10.16615 L136.355613,10.16615 C136.397769,9.40907187 136.122183,8.66872885 135.59525,8.12348943 C135.068317,7.57825001 134.337814,7.27755051 133.579738,7.2938375 C132.815669,7.28928115 132.081435,7.59012142 131.540232,8.12949162 C130.999029,8.66886181 130.695699,9.40207049 130.69765,10.16615 L130.69765,10.16615 Z" id="Shape"></path>
                </g>
                <g id="Group" transform="translate(11.250000, 8.750000)" fill="#000000">
                    <g id="_Group_">
                        <g id="_Group_2">
                            <g id="_Group_3">
                                <path d="M19.9958875,16.1116875 C20.0243003,13.9064956 21.1803875,11.8695699 23.0591125,10.71455 C21.8685255,9.0141825 19.9458619,7.97476315 17.871125,7.90985 C15.688325,7.680725 13.5722125,9.216 12.459875,9.216 C11.3260375,9.216 9.6134625,7.9326 7.7692875,7.9705375 C5.34284891,8.04893131 3.13558747,9.39505913 1.955075,11.5164125 C-0.5588125,15.8689125 1.316325,22.26565 3.7244625,25.7839125 C4.9293125,27.5067 6.337425,29.4310875 8.1799375,29.36285 C9.9829375,29.2880625 10.656325,28.2131375 12.8326875,28.2131375 C14.9888625,28.2131375 15.620625,29.36285 17.500525,29.3194625 C19.4352375,29.2880625 20.654175,27.589025 21.816775,25.849925 C22.6824586,24.6223793 23.3486003,23.2656735 23.790525,21.8300625 C21.4926789,20.8581868 19.9985617,18.6066087 19.9958875,16.1116875 Z" id="_Path_"></path>
                                <path d="M16.4451375,5.5960125 C17.5000262,4.32966901 18.0197322,2.70199389 17.8938875,1.05865 C16.2822669,1.22791866 14.7935806,1.99816782 13.72445,3.215925 C12.6687312,4.41740762 12.1339071,5.98926929 12.237775,7.5853 C13.8709979,7.60211169 15.4217076,6.86891899 16.4451375,5.5960125 Z" id="_Path_2"></path>
                            </g>
                        </g>
                    </g>
                    <g id="_Group_4" transform="translate(32.500000, 1.250000)">
                        <g id="Group">
                            <path d="M3.5327375,0.91375 C4.5189207,0.842980227 5.48486533,1.21818429 6.16470161,1.93608977 C6.84453789,2.65399526 7.16660734,3.63893099 7.0422625,4.6198 C7.0422625,7.0026125 5.754425,8.3723 3.5327375,8.3723 L0.83865,8.3723 L0.83865,0.91375 L3.5327375,0.91375 Z M1.9970875,7.3175 L3.4033375,7.3175 C4.10811493,7.35962751 4.79435815,7.08194876 5.27152314,6.56156474 C5.74868813,6.04118072 5.96597451,5.33349302 5.86305,4.635 C5.95848627,3.93940567 5.73807073,3.23755777 5.26208884,2.72141748 C4.78610696,2.20527718 4.10436959,1.92885787 3.4033375,1.9677625 L1.9970875,1.9677625 L1.9970875,7.3175 Z" id="Shape"></path>
                            <path d="M8.35085,5.555425 C8.25433391,4.54653131 8.73810458,3.57013992 9.59926991,3.03574671 C10.4604352,2.5013535 11.5501023,2.5013535 12.4112676,3.03574671 C13.2724329,3.57013992 13.7562036,4.54653131 13.6596875,5.555425 C13.7580399,6.56540283 13.2747108,7.54368798 12.4127819,8.07923163 C11.550853,8.61477527 10.4596845,8.61477527 9.59775557,8.07923163 C8.73582668,7.54368798 8.25249757,6.56540283 8.35085,5.555425 Z M12.5171125,5.555425 C12.5171125,4.3353375 11.969,3.6218375 11.0071,3.6218375 C10.041525,3.6218375 9.49835,4.3353375 9.49835,5.5554375 C9.49835,6.7853 10.0415625,7.4933 11.0071,7.4933 C11.9690125,7.4933 12.5171125,6.7804 12.5171125,5.555425 L12.5171125,5.555425 Z" id="Shape"></path>
                            <polygon id="Path" points="20.716575 8.3721875 19.5642375 8.3721875 18.4009125 4.226675 18.313025 4.226675 17.154575 8.3721875 16.0132125 8.3721875 14.4617 2.743525 15.5884125 2.743525 16.5967125 7.038525 16.679725 7.038525 17.83695 2.743525 18.902625 2.743525 20.05985 7.038525 20.1477375 7.038525 21.15115 2.743525 22.2619875 2.743525"></polygon>
                            <path d="M23.5669125,2.743525 L24.63625,2.743525 L24.63625,3.6376875 L24.7192625,3.6376875 C25.0079311,2.97934742 25.6824661,2.57663434 26.39895,2.634875 C26.953721,2.59316471 27.4973573,2.80598738 27.8763635,3.21325259 C28.2553696,3.6205178 28.4286163,4.1780297 28.3471875,4.728375 L28.3471875,8.372125 L27.23635,8.372125 L27.23635,5.007325 C27.23635,4.1027875 26.8432875,3.65295 26.02175,3.65295 C25.6454573,3.6354239 25.2802752,3.78310321 25.0219433,4.05727098 C24.7636113,4.33143875 24.6378938,4.70475126 24.67775,5.0793375 L24.67775,8.3721875 L23.5669125,8.3721875 L23.5669125,2.743525 Z" id="Path"></path>
                            <polygon id="Path" points="30.1172125 0.54625 31.22805 0.54625 31.22805 8.372175 30.1172125 8.372175"></polygon>
                            <path d="M32.7722375,5.555425 C32.6757214,4.54653131 33.1594921,3.57013992 34.0206574,3.03574671 C34.8818227,2.5013535 35.9714898,2.5013535 36.8326551,3.03574671 C37.6938204,3.57013992 38.1775911,4.54653131 38.081075,5.555425 C38.1794274,6.56540283 37.6960983,7.54368798 36.8341694,8.07923163 C35.9722405,8.61477527 34.881072,8.61477527 34.0191431,8.07923163 C33.1572142,7.54368798 32.6738851,6.56540283 32.7722375,5.555425 Z M36.9385,5.555425 C36.9385,4.3353375 36.3903875,3.6218375 35.4284875,3.6218375 C34.4629125,3.6218375 33.9197375,4.3353375 33.9197375,5.5554375 C33.9197375,6.7853 34.46295,7.4933 35.4284875,7.4933 C36.3904,7.4933 36.9385,6.7804 36.9385,5.555425 L36.9385,5.555425 Z" id="Shape"></path>
                            <path d="M39.2505125,6.7804 C39.2505125,5.7672125 40.0049125,5.1831125 41.3440125,5.1001 L42.868675,5.0122125 L42.868675,4.526375 C42.868675,3.9318875 42.4756125,3.5962 41.7163375,3.5962 C41.096225,3.5962 40.6665375,3.8238625 40.5432375,4.2218125 L39.4678,4.2218125 C39.581325,3.2550125 40.49075,2.6349 41.7676,2.6349 C43.1787375,2.6349 43.9746375,3.3374 43.9746375,4.526375 L43.9746375,8.3722 L42.9053,8.3722 L42.9053,7.5811875 L42.8174125,7.5811875 C42.4542232,8.15884542 41.8083546,8.49645404 41.1267375,8.4649375 C40.6489077,8.51463977 40.1723514,8.35988833 39.8148823,8.03894056 C39.4574131,7.71799279 39.2523951,7.26080414 39.2505125,6.7804 L39.2505125,6.7804 Z M42.868675,6.2994375 L42.868675,5.8288625 L41.4941625,5.91675 C40.7190125,5.968625 40.36745,6.2323 40.36745,6.7285125 C40.36745,7.2351 40.8069,7.5299 41.4112,7.5299 C41.7689326,7.56611233 42.1260455,7.45559382 42.400788,7.22364449 C42.6755305,6.99169516 42.844377,6.65817632 42.868675,6.2994375 L42.868675,6.2994375 Z" id="Shape"></path>
                            <path d="M45.4346,5.555425 C45.4346,3.7768625 46.3489125,2.65015 47.771025,2.65015 C48.489121,2.61706267 49.1616844,3.00184108 49.4971,3.63765 L49.5801125,3.63765 L49.5801125,0.54625 L50.69095,0.54625 L50.69095,8.372175 L49.6265,8.372175 L49.6265,7.4828875 L49.5386125,7.4828875 C49.1778427,8.11342123 48.4969932,8.49169559 47.7710375,8.4649375 C46.3391375,8.465 45.4346,7.3382625 45.4346,5.555425 Z M46.5821,5.555425 C46.5821,6.749275 47.14485,7.4676625 48.0860125,7.4676625 C49.0222625,7.4676625 49.6009,6.7389125 49.6009,5.5603125 C49.6009,4.3872125 49.0161875,3.648075 48.0860125,3.648075 C47.1509,3.648075 46.58205,4.3713375 46.58205,5.555425 L46.5821,5.555425 Z" id="Shape"></path>
                            <path d="M55.2868875,5.555425 C55.1904455,4.54646531 55.6742925,3.5700492 56.5355217,3.03564775 C57.396751,2.5012463 58.486474,2.5012463 59.3477033,3.03564775 C60.2089325,3.5700492 60.6927795,4.54646531 60.5963375,5.555425 C60.694565,6.56543899 60.2111473,7.54369649 59.3491757,8.07921655 C58.487204,8.61473661 57.396021,8.61473661 56.5340493,8.07921655 C55.6720777,7.54369649 55.18866,6.56543899 55.2868875,5.555425 L55.2868875,5.555425 Z M59.45315,5.555425 C59.45315,4.3353375 58.9050375,3.6218375 57.9431375,3.6218375 C56.9775625,3.6218375 56.4343875,4.3353375 56.4343875,5.5554375 C56.4343875,6.7853 56.9776,7.4933 57.9431375,7.4933 C58.905,7.4933 59.45315,6.7804 59.45315,5.555425 L59.45315,5.555425 Z" id="Shape"></path>
                            <path d="M62.0868125,2.743525 L63.15615,2.743525 L63.15615,3.6376875 L63.2391625,3.6376875 C63.5278311,2.97934742 64.2023661,2.57663434 64.91885,2.634875 C65.473621,2.59316471 66.0172573,2.80598738 66.3962635,3.21325259 C66.7752696,3.6205178 66.9485163,4.1780297 66.8670875,4.728375 L66.8670875,8.372125 L65.75625,8.372125 L65.75625,5.007325 C65.75625,4.1027875 65.3631875,3.65295 64.54165,3.65295 C64.1653573,3.6354239 63.8001752,3.78310321 63.5418433,4.05727098 C63.2835113,4.33143875 63.1577938,4.70475126 63.19765,5.0793375 L63.19765,8.3721875 L62.0868125,8.3721875 L62.0868125,2.743525 Z" id="Path"></path>
                            <path d="M73.14395,1.3421625 L73.14395,2.7691625 L74.3634375,2.7691625 L74.3634375,3.7048375 L73.14395,3.7048375 L73.14395,6.599125 C73.14395,7.188725 73.386875,7.4469 73.93985,7.4469 C74.0814195,7.44644692 74.2228468,7.43788708 74.3634375,7.4212625 L74.3634375,8.34655 C74.1639494,8.3822384 73.961832,8.40122505 73.7591875,8.4033125 C72.5238375,8.4033125 72.0318875,7.9687375 72.0318875,6.8835375 L72.0318875,3.7047875 L71.1383375,3.7047875 L71.1383375,2.7691125 L72.0318875,2.7691125 L72.0318875,1.3421625 L73.14395,1.3421625 Z" id="Path"></path>
                            <path d="M75.8807625,0.54625 L76.9818375,0.54625 L76.9818375,3.6480625 L77.069725,3.6480625 C77.3722597,2.9839607 78.0586002,2.58073443 78.785975,2.6397625 C79.3375958,2.6097466 79.8738729,2.82725464 80.2487366,3.23304232 C80.6236003,3.63882999 80.7980062,4.19063205 80.72445,4.73815 L80.72445,8.3721875 L79.6125,8.3721875 L79.6125,5.0121875 C79.6125,4.1131375 79.19375,3.6578125 78.4088875,3.6578125 C78.0224237,3.62611709 77.6416739,3.7666137 77.3684279,4.04174188 C77.095182,4.31687006 76.9573024,4.69857539 76.99165,5.0848125 L76.99165,8.3721875 L75.8808125,8.3721875 L75.8807625,0.54625 Z" id="Path"></path>
                            <path d="M87.2015625,6.8524125 C86.8900713,7.91413685 85.8626236,8.6001288 84.7626,8.480825 C84.0120549,8.50063775 83.2907393,8.18953837 82.7900353,7.63006895 C82.2893313,7.07059953 82.059858,6.31931992 82.1625,5.5755625 C82.0625842,4.82973809 82.2911978,4.07725467 82.7891135,3.51305869 C83.2870293,2.94886272 84.0052525,2.62847094 84.7577125,2.6348875 C86.323875,2.6348875 87.2687,3.7048875 87.2687,5.4723875 L87.2687,5.86 L83.2940875,5.86 L83.2940875,5.92225 C83.258915,6.33992518 83.4015634,6.75305969 83.686951,7.06005087 C83.9723386,7.36704206 84.3739848,7.5394049 84.7931125,7.53475 C85.3365773,7.59999335 85.8656031,7.3304163 86.132225,6.852375 L87.2015625,6.8524125 Z M83.2940625,5.03845 L86.137075,5.03845 C86.1653911,4.65645055 86.0310731,4.28025634 85.7672212,4.00257387 C85.5033692,3.72489139 85.1345219,3.57154528 84.751575,3.580325 C84.36344,3.57544864 83.989785,3.72752654 83.7153704,4.0020611 C83.4409559,4.27659566 83.2890414,4.65031717 83.2940875,5.03845 L83.2940625,5.03845 Z" id="Shape"></path>
                        </g>
                    </g>
                </g>
            </g>
        </g>
    </g>
</svg>